<?xml version="1.0" encoding="UTF-8" standalone="no"?>
<svg
   xmlns:dc="http://purl.org/dc/elements/1.1/"
   xmlns:cc="http://creativecommons.org/ns#"
   xmlns:rdf="http://www.w3.org/1999/02/22-rdf-syntax-ns#"
   xmlns:svg="http://www.w3.org/2000/svg"
   xmlns="http://www.w3.org/2000/svg"
   xmlns:sodipodi="http://sodipodi.sourceforge.net/DTD/sodipodi-0.dtd"
   xmlns:inkscape="http://www.inkscape.org/namespaces/inkscape"
   version="1.1"
   viewBox="0 0 23.543308 15.826772"
   id="svg14"
   sodipodi:docname="start.svg"
   inkscape:version="0.92.4 (5da689c313, 2019-01-14)"
   width="23.543308"
   height="15.826772">
  <defs
     id="defs12" />
  <metadata
     id="metadata18">
    <rdf:RDF>
      <cc:Work
         rdf:about="">
        <dc:format>image/svg+xml</dc:format>
        <dc:type
           rdf:resource="http://purl.org/dc/dcmitype/StillImage" />
        <dc:title />
      </cc:Work>
    </rdf:RDF>
  </metadata>
  <sodipodi:namedview
     pagecolor="#ffffff"
     bordercolor="#666666"
     borderopacity="1"
     objecttolerance="10"
     gridtolerance="10"
     guidetolerance="10"
     inkscape:pageopacity="0"
     inkscape:pageshadow="2"
     inkscape:window-width="1280"
     inkscape:window-height="978"
     id="namedview16"
     showgrid="false"
     inkscape:zoom="11.502901"
     inkscape:cx="2.1384609"
     inkscape:cy="5.0107276"
     inkscape:window-x="0"
     inkscape:window-y="0"
     inkscape:window-maximized="1"
     inkscape:current-layer="svg14" />
  <g
     id="start-here-kde"
     transform="matrix(0.03937008,0,0,0.03937008,-0.00137795,1.968504e-5)">
    <defs
       id="defs6">
      <style
         type="text/css"
         id="style2">.str3 {stroke:#2D0F31;stroke-width:0.390945}
    .str1 {stroke:#3318C5;stroke-width:0.390945}
    .str2 {stroke:#CD111F;stroke-width:0.390945}
    .str0 {stroke:white;stroke-width:0.390945}
    .fil1 {fill:none}
    .fil4 {fill:#2D0F31}
    .fil2 {fill:#3318C5}
    .fil5 {fill:#3318C5}
    .fil3 {fill:#CD111F}
    .fil0 {fill:white}
    .fil6 {fill:white}</style>
      <style
         type="text/css"
         id="style4">.fil0 {fill:black}</style>
    </defs>
    <g
       transform="translate(-981,-51.362)"
       id="g12">
      <g
         transform="translate(63.135,-45.096)"
         id="g10">
        <path
           class="fil0"
           d="m 1061.8,338.93 c 30,-24 85.102,-61.472 153.1,-61.472 69,0 123,32 158,62 l 14,19 c -26,-10 -75,-25 -74,-24 19,9 38,21 54,36 -145,120 -288,17 -301,0 16,-15 34,-27 55,-37 l -73,24 z m 110.1,-8.4725 c -36,8 -64,22 -86,41 28,24 62,39 102,45 -38,-30 -34,-58 -16,-86 z m 89,0 c 35,8 64,22 86,41 -28,24 -62,39 -102,45 38,-30 33,-58 16,-86 z m -54,1 c 0,1 4,14 4,14 -11,3 -16,10 -16,20 h -14 c 0,-17 9,-27 26,-34 z m 18,-224 291,391 h -598 l 299,-402 z m 124,199 -132,-177 -259,349 h 518 z"
           id="path8"
           style="clip-rule:evenodd;fill:#55aaff;fill-opacity:1;fill-rule:evenodd;image-rendering:optimizeQuality;shape-rendering:geometricPrecision"
           inkscape:connector-curvature="0" />
      </g>
    </g>
  </g>
</svg>
